HIERARCHY
ROOT Hips
{
	OFFSET -14.64140 90.27770 -84.91600
	CHANNELS 6 Xposition Yposition Zposition Zrotation Xrotation Yrotation
	JOINT Spine
	{
		OFFSET 0.00000 13.20850 -1.60436
		CHANNELS 3 Zrotation Xrotation Yrotation
		JOINT Spine1
		{
			OFFSET 0.00000 8.61716 0.00000
			CHANNELS 3 Zrotation Xrotation Yrotation
			JOINT Spine2
			{
				OFFSET 0.00000 8.61717 0.00000
				CHANNELS 3 Zrotation Xrotation Yrotation
				JOINT Spine3
				{
					OFFSET 0.00000 8.61717 0.00000
					CHANNELS 3 Zrotation Xrotation Yrotation
					JOINT Neck
					{
						OFFSET 0.00000 11.07920 1.10792
						CHANNELS 3 Zrotation Xrotation Yrotation
						JOINT Neck1
						{
							OFFSET 0.00000 7.08032 0.00000
							CHANNELS 3 Zrotation Xrotation Yrotation
							JOINT Head
							{
								OFFSET 0.00000 7.08031 0.00000
								CHANNELS 3 Zrotation Xrotation Yrotation
								End site
								{
									OFFSET 0.00000 0.00000 0.00000
								}
							}
						}
					}
					JOINT RightShoulder
					{
						OFFSET -0.01000 7.91373 5.19711
						CHANNELS 3 Zrotation Xrotation Yrotation
						JOINT RightArm
						{
							OFFSET -18.41580 0.00000 0.00000
							CHANNELS 3 Zrotation Xrotation Yrotation
							JOINT RightForeArm
							{
								OFFSET -29.11090 0.00000 0.00000
								CHANNELS 3 Zrotation Xrotation Yrotation
								JOINT RightHand
								{
									OFFSET -24.65040 0.00000 0.00000
									CHANNELS 3 Zrotation Xrotation Yrotation
									JOINT RightHandThumb1
									{
										OFFSET -5.35114 -0.85590 3.97906
										CHANNELS 3 Zrotation Xrotation Yrotation
										JOINT RightHandThumb2
										{
											OFFSET -4.52789 0.00000 0.00000
											CHANNELS 3 Zrotation Xrotation Yrotation
											JOINT RightHandThumb3
											{
												OFFSET -2.46976 0.00000 0.00000
												CHANNELS 3 Zrotation Xrotation Yrotation
												End site
												{
													OFFSET 0.00000 0.00000 0.00000
												}
											}
										}
									}
									JOINT RightHandIndex1
									{
										OFFSET -14.26970 0.00000 2.88139
										CHANNELS 3 Zrotation Xrotation Yrotation
										JOINT RightHandIndex2
										{
											OFFSET -5.48836 0.00000 0.00000
											CHANNELS 3 Zrotation Xrotation Yrotation
											JOINT RightHandIndex3
											{
												OFFSET -3.01859 0.00000 0.00000
												CHANNELS 3 Zrotation Xrotation Yrotation
												End site
												{
													OFFSET 0.00000 0.00000 0.00000
												}
											}
										}
									}
									JOINT RightHandMiddle1
									{
										OFFSET -14.26970 0.00000 -0.09147
										CHANNELS 3 Zrotation Xrotation Yrotation
										JOINT RightHandMiddle2
										{
											OFFSET -6.17441 0.00000 0.00000
											CHANNELS 3 Zrotation Xrotation Yrotation
											JOINT RightHandMiddle3
											{
												OFFSET -3.56743 0.00000 0.00000
												CHANNELS 3 Zrotation Xrotation Yrotation
												End site
												{
													OFFSET 0.00000 0.00000 0.00000
												}
											}
										}
									}
									JOINT RightHandRing1
									{
										OFFSET -12.69180 0.00000 -3.06433
										CHANNELS 3 Zrotation Xrotation Yrotation
										JOINT RightHandRing2
										{
											OFFSET -5.62556 0.00000 0.00000
											CHANNELS 3 Zrotation Xrotation Yrotation
											JOINT RightHandRing3
											{
												OFFSET -3.56744 0.00000 0.00000
												CHANNELS 3 Zrotation Xrotation Yrotation
												End site
												{
													OFFSET 0.00000 0.00000 0.00000
												}
											}
										}
									}
									JOINT RightHandPinky1
									{
										OFFSET -11.11390 0.00000 -6.03719
										CHANNELS 3 Zrotation Xrotation Yrotation
										JOINT RightHandPinky2
										{
											OFFSET -4.52789 0.00000 0.00000
											CHANNELS 3 Zrotation Xrotation Yrotation
											JOINT RightHandPinky3
											{
												OFFSET -2.46976 0.00000 0.00000
												CHANNELS 3 Zrotation Xrotation Yrotation
												End site
												{
													OFFSET 0.00000 0.00000 0.00000
												}
											}
										}
									}
								}
							}
						}
					}
					JOINT LeftShoulder
					{
						OFFSET 0.01000 7.91373 5.19711
						CHANNELS 3 Zrotation Xrotation Yrotation
						JOINT LeftArm
						{
							OFFSET 18.41580 0.00000 0.00000
							CHANNELS 3 Zrotation Xrotation Yrotation
							JOINT LeftForeArm
							{
								OFFSET 29.11090 0.00000 0.00000
								CHANNELS 3 Zrotation Xrotation Yrotation
								JOINT LeftHand
								{
									OFFSET 24.65040 0.00000 0.00000
									CHANNELS 3 Zrotation Xrotation Yrotation
									JOINT LeftHandThumb1
									{
										OFFSET 5.35114 -0.85590 3.97906
										CHANNELS 3 Zrotation Xrotation Yrotation
										JOINT LeftHandThumb2
										{
											OFFSET 4.52789 0.00000 0.00000
											CHANNELS 3 Zrotation Xrotation Yrotation
											JOINT LeftHandThumb3
											{
												OFFSET 2.46977 0.00000 0.00000
												CHANNELS 3 Zrotation Xrotation Yrotation
												End site
												{
													OFFSET 0.00000 0.00000 0.00000
												}
											}
										}
									}
									JOINT LeftHandIndex1
									{
										OFFSET 14.26970 0.00000 2.88139
										CHANNELS 3 Zrotation Xrotation Yrotation
										JOINT LeftHandIndex2
										{
											OFFSET 5.48836 0.00000 0.00000
											CHANNELS 3 Zrotation Xrotation Yrotation
											JOINT LeftHandIndex3
											{
												OFFSET 3.01859 0.00000 0.00000
												CHANNELS 3 Zrotation Xrotation Yrotation
												End site
												{
													OFFSET 0.00000 0.00000 0.00000
												}
											}
										}
									}
									JOINT LeftHandMiddle1
									{
										OFFSET 14.26970 0.00000 -0.09147
										CHANNELS 3 Zrotation Xrotation Yrotation
										JOINT LeftHandMiddle2
										{
											OFFSET 6.17440 0.00000 0.00000
											CHANNELS 3 Zrotation Xrotation Yrotation
											JOINT LeftHandMiddle3
											{
												OFFSET 3.56744 0.00000 0.00000
												CHANNELS 3 Zrotation Xrotation Yrotation
												End site
												{
													OFFSET 0.00000 0.00000 0.00000
												}
											}
										}
									}
									JOINT LeftHandRing1
									{
										OFFSET 12.69180 0.00000 -3.06433
										CHANNELS 3 Zrotation Xrotation Yrotation
										JOINT LeftHandRing2
										{
											OFFSET 5.62556 0.00000 0.00000
											CHANNELS 3 Zrotation Xrotation Yrotation
											JOINT LeftHandRing3
											{
												OFFSET 3.56744 0.00000 0.00000
												CHANNELS 3 Zrotation Xrotation Yrotation
												End site
												{
													OFFSET 0.00000 0.00000 0.00000
												}
											}
										}
									}
									JOINT LeftHandPinky1
									{
										OFFSET 11.11390 0.00000 -6.03719
										CHANNELS 3 Zrotation Xrotation Yrotation
										JOINT LeftHandPinky2
										{
											OFFSET 4.52789 0.00000 0.00000
											CHANNELS 3 Zrotation Xrotation Yrotation
											JOINT LeftHandPinky3
											{
												OFFSET 2.46976 0.00000 0.00000
												CHANNELS 3 Zrotation Xrotation Yrotation
												End site
												{
													OFFSET 0.00000 0.00000 0.00000
												}
											}
										}
									}
								}
							}
						}
					}
					JOINT pCube4
					{
						OFFSET 0.00000 10.91090 1.10792
						CHANNELS 3 Zrotation Xrotation Yrotation
						End site
						{
							OFFSET 0.00000 0.00000 0.00000
						}
					}
				}
			}
		}
	}
	JOINT RightUpLeg
	{
		OFFSET -9.98441 0.00000 0.00000
		CHANNELS 3 Zrotation Xrotation Yrotation
		JOINT RightLeg
		{
			OFFSET 0.00000 -42.11790 0.00000
			CHANNELS 3 Zrotation Xrotation Yrotation
			JOINT RightFoot
			{
				OFFSET 0.00000 -45.00020 -0.00001
				CHANNELS 3 Zrotation Xrotation Yrotation
				JOINT RightForeFoot
				{
					OFFSET 0.00000 -3.74820 0.00000
					CHANNELS 3 Zrotation Xrotation Yrotation
					JOINT RightToeBase
					{
						OFFSET 0.00000 0.06325 14.43120
						CHANNELS 3 Zrotation Xrotation Yrotation
						End site
						{
							OFFSET 0.00000 0.00000 0.00000
						}
					}
				}
			}
		}
	}
	JOINT LeftUpLeg
	{
		OFFSET 9.98441 0.00000 0.00000
		CHANNELS 3 Zrotation Xrotation Yrotation
		JOINT LeftLeg
		{
			OFFSET 0.00000 -42.11800 0.00000
			CHANNELS 3 Zrotation Xrotation Yrotation
			JOINT LeftFoot
			{
				OFFSET 0.00000 -45.00070 0.00000
				CHANNELS 3 Zrotation Xrotation Yrotation
				JOINT LeftForeFoot
				{
					OFFSET 0.00000 -3.74824 0.00000
					CHANNELS 3 Zrotation Xrotation Yrotation
					JOINT LeftToeBase
					{
						OFFSET 0.00000 0.06325 14.43110
						CHANNELS 3 Zrotation Xrotation Yrotation
						End site
						{
							OFFSET 0.00000 0.00000 0.00000
						}
					}
				}
			}
		}
	}
}
MOTION
Frames: 4
Frame Time: 0.050000
-0.03456960162957136 0.018666670332763497 0.024703553465527994 -0.03313701816609523 -0.010720801866897198 -0.037390959527774485 2.3837371346122356 1.0762727146687905 -1.85064093099253 -0.7884635763582646 3.38400644421877 0.4129905705052975 -0.9122340159303198 -1.619655843422363 0.5393302859797591 -0.6769459077062787 -0.3587141473784728 -0.4305132321065968 0.3519355916485335 13.093975799089186 -1.3607856351393859 0.5867104824010748 0.5949830387520939 -3.5916853926526096 1.043882838044285 -14.774051406249102 -0.354092018102143 -9.656248094777505 3.440462626218434 -15.408402016097307 75.72825523637634 4.316014595795138 22.07300834506558 41.821144213717155 9.87547920650251 94.28298919784673 18.068788842808367 -0.422683984911084 -7.585446201804628 4.577225888669557 -0.15308640138514512 -1.6022970645109527 0.028234566521063646 0.035487953578618926 -56.27030916826961 -0.0015113292512767744 -0.030093410152817926 -56.2118074967225 -38.802833544683416 0.03477031067536649 -0.005405462083859204 -0.025681919020915378 0.03600567612364122 0.011066043546434748 0.006687413121599821 0.03729013541780547 0.04056837487013737 -36.70255714514061 -0.04933386675449018 0.03358602501723437 0.03010742029872916 0.003416517783004192 -0.020197942044940083 0.02247744482058211 -0.013685624653866442 0.0036953340447548667 -19.74028290678121 0.039255438994485525 0.00042410407785523936 -0.036127429988561374 0.0034106552121826715 -0.03279436682270522 0.03299217704470486 0.03237878181833736 -0.033848941204140455 24.021533890008758 -0.026815339376833208 -0.04222037715643027 28.864248297196024 -0.012733656434026028 -0.03243683953312893 28.896595355124745 0.0313223553199106 -0.02189276526261735 9.556922754689726 2.272482075106687 13.221874186800775 -73.73157753954865 22.913760042039506 -19.7268907484296 -55.58411800901528 13.112917383394993 -95.97737487910729 -18.600809730108228 -8.363803721432362 6.491997486375411 -0.4917933598153802 0.07992901184496302 -8.15521624259741 -0.00791683225283579 -0.001981453024705453 44.593348357211816 -0.04155696876777055 0.013834195605962156 44.589281125983234 12.455200098710389 0.009632778454380724 0.029331238416995555 -0.03231864117398081 0.04042281113305698 0.0038214048010922516 -0.005784951202834061 0.014443309085076177 0.04328139568536472 11.135397413443888 0.02198506514404557 0.045907838437678816 -0.008648178543090192 -0.005317142926520151 -0.039360168053694085 0.04514080434524561 0.02714209612824331 0.02269644949480612 4.762812025826913 0.0025861327466319187 0.018449952951483568 0.04554116025670207 -0.00111772622882502 0.04292328757937701 0.0425857677155135 -0.015081806182405502 0.01735563394163338 -5.578097816425317 0.013796823775329078 -0.03854604004518879 -6.6891884639878 0.005684462602465976 0.01225844105329074 -6.6959248370135 -0.005593869292700926 0.00032432639437393796 -0.036269362396485705 -0.04344569418915696 0.038899712543439546 8.028289723273787 3.4550977073762303 -19.214340071008714 0.030063457414899044 10.362538177238182 -0.016023042436086432 -5.585016222402186 -15.661627573150287 3.153546405452595 0.003083438414994625 -0.03372052067411681 -0.00434887679397444 -0.010806734331176819 4.691570586176289 0.018502383636386236 12.447820715175354 -8.280276780910674 6.86722645772222 0.027486316537802702 46.42672262994192 -0.012502745945857591 -4.296714004455195 -14.790953936315159 -3.8610724858861825 -0.04828821249805336 0.035763781779004244 0.04605673160987462 -0.012779577731533391 -10.764029209070282 0.03135264050398526 
-0.033206338635701646 0.026195169874935104 0.02162379331502335 -0.015556639679562476 0.04598924586053854 -0.007174338790323501 2.010966460891807 1.0152573891935663 -1.7840191839633297 -0.8336069091900846 3.341202878449227 0.3924079387511467 -0.9747044164480632 -1.6679693847877497 0.6735727390674419 -0.7495231174610788 -0.3718080842182686 -0.3554496997456483 0.4278780847553155 13.248847093251406 -1.3532231329168671 0.5985460569482884 0.5940751717534307 -3.806259732112358 1.1127069162311136 -14.733965962175628 -0.3021715357163606 -9.877705142632543 3.4724863120667013 -15.290958618326828 75.30680602753235 1.1341016083706692 24.220504955879566 41.77980372585612 9.564074519714488 95.2570978824341 17.526010027239103 -0.42211141819851666 -7.278947396918846 4.486602771261224 -0.1030754061540641 -1.609439849816167 0.00480987825740398 0.04149058557803951 -56.26897823178956 0.04865095100244852 -0.026378321670315424 -56.238547841129446 -38.77547544873096 -0.0074706585701486165 0.03412297211596256 0.012104813966569344 0.0356806655447868 -0.03432987647508496 0.017042192840606218 0.006249885809904674 0.006475292592948977 -36.72200565368998 0.02626334838395841 0.019571189937532808 0.039681329783488935 0.015429525992004157 0.026499586969382854 0.018848012667346252 0.009890544176419542 0.04581681236611655 -19.71883487988106 0.046670751088378176 -0.04159969094288741 0.027887716765243663 -0.03387972324088583 0.04375179728243399 -0.0006712734604230764 -0.01704771152259517 -0.02066975774865423 24.043476715550394 0.02281672222200634 -0.0021820044193340076 28.90701776375358 0.03190159633032042 -0.039838548695614595 28.896248653951943 -0.03368716514919074 -0.0379402034452993 9.327752139508581 2.2558983357753077 13.216455654303049 -73.46239155679419 23.4078180228527 -18.977644599942824 -54.086773644675894 12.689036999861397 -95.84072298747803 -18.04910058547849 -7.77778701315368 5.9528430802630705 -0.48301895083129287 0.028440596182006936 -8.079478675505522 -0.009449323957621788 -0.030119545842318816 44.53518907119658 0.01394809202676107 0.01811370736710653 44.540570989608966 12.45617462261138 -0.01991692146620185 0.014335041330668995 0.02560246198334406 0.0029639728501852525 -0.03276040150166045 0.03869273649360474 0.02867948833852962 0.0023675975168764365 11.098943498332645 -0.037365569447343844 0.014653309861548634 -0.018559840366772502 0.03396225059946732 -0.024908975208072084 -0.01668977917714723 0.015328863890676454 -0.001563649471573306 4.772435675924392 0.014997249544332916 0.02068089460987611 -0.0037709580990264923 0.045557522158231785 -0.010799165816228041 -0.04754548104167961 -0.0028203677712928675 -0.008059711113918986 -5.620615155399331 -0.019971214302844875 0.0003962577972496465 -6.726846948272775 0.012683594488602413 0.0330977070289712 -6.724704046521963 -0.045248541022977685 -0.015662557896824185 0.02206113309657854 -0.030774107830020176 0.04721507262674615 8.072761666194477 3.504812036853051 -19.20117873313096 0.0484952896035572 10.382274000195228 0.05374977418521691 -5.634424607436989 -15.651176990448196 3.239729631082207 -0.017233224117017613 -0.015715109640103607 -0.04861219027596521 0.012335631301781468 4.6506729433164 0.013960881178326412 12.440542162347072 -8.280943284996939 6.911791354889331 0.03231209785293606 46.33682566157371 0.021009078988115416 -4.347352970309764 -14.759579529079453 -3.824366383174673 0.04171920830022889 -0.02088369356313803 -0.046095704418159446 0.030923283872179127 -10.70815844477933 0.0020927159742814483 
0.0007580214602636843 -0.028867634764409886 0.005313910135267886 -0.01638693985805381 -0.042277724539767275 -0.040335492896016865 1.7755709594435602 0.9688872110395229 -1.7431399635385578 -0.8284659077892412 3.4059132133943777 0.44162374761971324 -0.9544476008836765 -1.7083841650570244 0.9288559132565436 -0.8618873880398763 -0.3398280158928221 -0.37746630980020934 0.4840474497188328 13.370405655771584 -1.4189247436917807 0.6104002058819507 0.6411120839620305 -3.9971404954689387 1.1348337943968518 -14.65454353586367 -0.37380092826105743 -10.131665776916998 3.602267061618896 -15.23007891946063 74.99032733164738 -1.4458468988471014 26.551498806205867 40.788745532531024 9.360804710679703 96.43953717776738 16.88916395785083 -0.45551801628822863 -6.92215626055396 4.527844249644678 -0.10601784632627095 -1.6078488235017763 0.042924528419519 0.03829370356649474 -56.208674731236016 -0.04384003375535358 -0.007507880472776122 -56.264712963115606 -38.73658427066693 0.007820988581704755 -0.02214854634275208 0.004503004404824866 0.002624342952981098 -0.00983891148528485 -0.0037178785937116545 0.04870244182650672 -0.02088043844048819 -36.68124039288346 -0.044357808580061005 0.0009887946807750983 0.020716563470069192 0.01786092454593274 -0.006767322618122385 -0.0360884251179453 -0.003922718977554559 -0.03555800305440085 -19.742433252640797 -0.014161942422910101 0.00237097229940437 0.02115217914463688 0.019425640025587006 -0.049499023997390715 -0.028274522803089237 -0.019477075330158838 -0.006375522281453727 24.03342674481027 -0.013243503136383875 0.0017054544215259356 28.894340966789493 -0.04709988874358759 -0.01596680606153251 28.881852005656526 -0.038155433281836 0.009163736610261439 9.120346194197952 2.242422520495533 13.165546842144057 -73.1854704466923 24.162947997550972 -18.357127475296576 -51.1092353596023 12.265627538136615 -95.87482843928015 -17.615630989781984 -7.383623883724404 5.476309140832902 -0.494435800090349 0.10804802754502547 -8.079152898334835 -0.04781469577699855 -0.006480634482506211 44.54605291652462 0.012351934693655267 -0.007814698586831188 44.554219387504276 12.436276035998352 0.01571394565868919 -0.02628529607768558 0.049435055153850264 0.02942307409393206 -0.0016473908558674193 -0.035517481473573614 0.00440767792616958 -0.043531941867176675 11.102001296643035 0.006435569029513546 0.002015133903781531 -0.04934179090332473 -0.03899426415604882 0.003265357394959495 0.03159114153270046 -0.02436834769234276 -0.002842206066920679 4.76641108504992 0.007645608581606287 -0.016872401155866898 0.024179127081676424 -0.03897086910165298 0.010798007510151803 0.03466918244885014 0.03620307285007109 -0.017328500346691533 -5.578152389954291 0.0008287081320022939 -0.03211592635574462 -6.7142386809899595 0.01594074433914988 -0.01271265315143707 -6.727880885142202 0.038784329440305465 0.013871401068405327 -0.038374425643221285 -0.009936306997803807 0.0005326307894326249 8.03726882648634 3.5405742234532664 -19.193783083313065 0.04993802626756737 10.440218605622908 0.02484808406796218 -5.665076942631291 -15.614969687085068 3.1601364396929985 0.03649315545388168 -0.001911191238724317 0.018227401449879957 -0.023722140237014928 4.724072609693992 0.007683513833227032 12.503655320747836 -8.231795743457534 6.8693730212822 -0.018874566954324677 46.40208983775246 0.025134098024931627 -4.329868700017059 -14.752816945979262 -3.8072201543429864 -0.029248352408288138 -0.009640786770983713 0.04740545111433482 -0.0341434798162865 -10.782849148971936 0.01360123478915807 
-0.007583068902573809 -0.013740756190453738 -0.03337921198110241 -0.005504385093796946 0.03389969513491362 -0.02399537462219073 1.6683932274327546 0.9013251777719087 -1.7309222574220842 -0.8282256998403966 3.384658570202688 0.3703385443495387 -1.0653803618242632 -1.7494180481562072 1.0599144874242044 -0.9288709682518945 -0.4039799757753171 -0.3470662414191873 0.5178261806578778 13.46522402569868 -1.3373008556360584 0.6124802402691647 0.6874491309331902 -3.928098782442163 1.1730082259786505 -14.536694924636906 -0.30602829729132985 -10.295923500576215 3.617628216623184 -15.175376361557856 75.1254840364728 -2.7601684017826207 28.45079436123071 40.342326519628834 9.290690853259674 98.05214924971558 16.470677573232884 -0.4914275336113073 -6.811710490551095 4.547377506763901 -0.13501175207380534 -1.6366389059072455 0.004721726615008906 0.006296309408671476 -56.27310645224146 0.023242712564702193 0.013500484450839373 -56.247289715199074 -38.77306769830423 0.03673240595504479 -0.038242682846926106 0.026960298266052396 0.013654142417563467 -0.019301667736903325 -0.029806312476892936 -0.005648334035287848 0.025845187017582053 -36.728231822307485 0.00828154132869562 0.02067700980410534 -0.011824996870560303 -0.007613431052364278 0.018184140688737378 -0.013007302735822472 0.009600372378496848 0.0065651785998074395 -19.73895998545948 0.042247795978443935 0.04156028084283308 -0.017303179998490608 -0.02066192579802424 0.043703475009173896 -0.03938923192644588 -0.026643976771266613 0.01409253644740521 24.02214199421392 0.013243943139636557 0.012540948744555485 28.879271936641494 -0.006061808069216302 0.0224962358787564 28.832529223707404 0.03595648757332878 0.006012162703475425 9.14181017484545 2.2437240855108334 13.17355050575853 -73.13217276026026 24.641449323214275 -18.284783286265817 -49.444257654689864 12.306117862097468 -97.01621185090411 -17.437240060293416 -7.420673405567094 5.360235668485108 -0.4525569790785645 0.10413727722457297 -8.106484074243566 0.04897628316490505 -0.012431891666027702 44.536115989449996 -0.011073187369827583 0.010824732288385238 44.5624430744931 12.475058903660498 0.024163899111532477 -0.02812463270006395 0.015412461649417898 -0.016834685854036538 -0.03843635373466297 0.0037198499958641966 -0.030146362637884193 0.025666452441122364 11.137336319777798 -0.026567206383170942 0.012373558097871842 0.0344631667563459 0.022549062989607745 -0.04090735511479983 -0.023682032218819614 0.0325371411345033 0.025757633485719092 4.749396522904957 -0.01765104511646324 0.02333260818699023 0.02355940932170689 -0.026873150797456655 -0.006130321296624242 0.024515742645811044 0.010380383496452473 -0.032985105602869 -5.597179562085434 -0.049370937497356535 -0.01625982784161414 -6.735896249269989 0.036148032479760416 -0.020686884013947547 -6.766355638804422 -0.004640096558385337 0.016509126195885442 0.003773175632409725 0.02811111838369433 0.018579518929233634 8.033594214786728 3.5423944446993145 -19.24301630834128 0.026626998883736 10.432969696612734 0.03583938160098899 -5.643452034643376 -15.70118212953877 3.147731785981606 0.020164781238437877 -0.02296951398813501 0.010856020149440494 -0.036654425616165345 4.723267783979752 0.01950959024173976 12.46325109168078 -8.213150778456763 6.8996565512884835 0.024607666191471457 46.393307852932914 0.03402081879039383 -4.298120613327677 -14.776647643874224 -3.7930222164531693 -0.010077754193077111 -0.034506297466918245 -0.030233983293307152 0.007906628809060727 -10.782186602736141 0.04942715406094703 
